STARTFONT 2.1
FONT -FontForge-ITC Benguiat Gothic Std-Bold-R-Normal--12-120-75-75-P-63-ISO8859-1
SIZE 12 75 75
FONTBOUNDINGBOX 14 15 -2 -3
COMMENT "Generated by fontforge, http://fontforge.sourceforge.net"
COMMENT "Copyright 1990, 1995 , 2002Adobe Systems Incorporated. All Rights Reserved. ITC Benguiat Gothic is a registered trademark of International Typeface Corporation."
STARTPROPERTIES 40
FOUNDRY "FontForge"
FAMILY_NAME "ITC Benguiat Gothic Std"
WEIGHT_NAME "Bold"
SLANT "R"
SETWIDTH_NAME "Normal"
ADD_STYLE_NAME ""
PIXEL_SIZE 12
POINT_SIZE 120
RESOLUTION_X 75
RESOLUTION_Y 75
SPACING "P"
AVERAGE_WIDTH 63
CHARSET_REGISTRY "ISO8859"
CHARSET_ENCODING "1"
FONTNAME_REGISTRY ""
CHARSET_COLLECTIONS "ISOLatin1Encoding"
FONT_NAME "BenguiatGothicStd-Bold"
FACE_NAME "ITC Benguiat Gothic Std Bold"
COPYRIGHT "Copyright 1990, 1995 , 2002Adobe Systems Incorporated. All Rights Reserved. ITC Benguiat Gothic is a registered trademark of International Typeface Corporation."
FONT_VERSION "001.001"
FONT_ASCENT 8
FONT_DESCENT 4
UNDERLINE_POSITION -1
UNDERLINE_THICKNESS 1
X_HEIGHT 6
CAP_HEIGHT 8
RAW_ASCENT 691
RAW_DESCENT 309
NORM_SPACE 4
RELATIVE_WEIGHT 70
RELATIVE_SETWIDTH 50
SUPERSCRIPT_X 0
SUPERSCRIPT_Y 4
SUPERSCRIPT_SIZE 7
SUBSCRIPT_X 0
SUBSCRIPT_Y 0
SUBSCRIPT_SIZE 7
FIGURE_WIDTH 7
AVG_LOWERCASE_WIDTH 62
AVG_UPPERCASE_WIDTH 72
ENDPROPERTIES
CHARS 253
STARTCHAR space
ENCODING 32
SWIDTH 305 0
DWIDTH 4 0
BBX 1 1 0 0
BITMAP
00
ENDCHAR
STARTCHAR exclam
ENCODING 33
SWIDTH 333 0
DWIDTH 4 0
BBX 2 9 1 0
BITMAP
C0
C0
C0
C0
C0
C0
00
C0
C0
ENDCHAR
STARTCHAR quotedbl
ENCODING 34
SWIDTH 333 0
DWIDTH 4 0
BBX 4 3 0 6
BITMAP
F0
F0
F0
ENDCHAR
STARTCHAR numbersign
ENCODING 35
SWIDTH 611 0
DWIDTH 7 0
BBX 6 9 1 0
BITMAP
68
68
48
FC
50
F8
50
50
D0
ENDCHAR
STARTCHAR dollar
ENCODING 36
SWIDTH 611 0
DWIDTH 7 0
BBX 7 10 0 -1
BITMAP
10
10
7C
C0
7C
16
16
FC
10
10
ENDCHAR
STARTCHAR percent
ENCODING 37
SWIDTH 944 0
DWIDTH 11 0
BBX 10 9 1 0
BITMAP
E200
B600
B400
BC00
EB80
1AC0
16C0
12C0
3380
ENDCHAR
STARTCHAR ampersand
ENCODING 38
SWIDTH 778 0
DWIDTH 9 0
BBX 9 9 0 0
BITMAP
3800
2C00
2F00
3900
7900
CF00
C700
6700
3D80
ENDCHAR
STARTCHAR quotesingle
ENCODING 39
SWIDTH 222 0
DWIDTH 3 0
BBX 1 3 1 6
BITMAP
80
80
80
ENDCHAR
STARTCHAR parenleft
ENCODING 40
SWIDTH 389 0
DWIDTH 5 0
BBX 3 12 1 -3
BITMAP
20
60
C0
C0
80
80
80
80
C0
C0
60
20
ENDCHAR
STARTCHAR parenright
ENCODING 41
SWIDTH 389 0
DWIDTH 5 0
BBX 4 12 0 -3
BITMAP
C0
60
20
30
30
30
30
30
30
20
60
C0
ENDCHAR
STARTCHAR asterisk
ENCODING 42
SWIDTH 444 0
DWIDTH 5 0
BBX 4 4 1 5
BITMAP
40
F0
E0
40
ENDCHAR
STARTCHAR plus
ENCODING 43
SWIDTH 600 0
DWIDTH 7 0
BBX 6 7 1 0
BITMAP
20
20
20
FC
20
20
20
ENDCHAR
STARTCHAR comma
ENCODING 44
SWIDTH 305 0
DWIDTH 4 0
BBX 2 3 1 -1
BITMAP
C0
C0
80
ENDCHAR
STARTCHAR hyphen
ENCODING 45
SWIDTH 333 0
DWIDTH 4 0
BBX 2 1 1 3
BITMAP
C0
ENDCHAR
STARTCHAR period
ENCODING 46
SWIDTH 305 0
DWIDTH 4 0
BBX 2 2 1 0
BITMAP
80
C0
ENDCHAR
STARTCHAR slash
ENCODING 47
SWIDTH 278 0
DWIDTH 3 0
BBX 4 9 0 0
BITMAP
30
20
20
60
40
40
C0
80
80
ENDCHAR
STARTCHAR zero
ENCODING 48
SWIDTH 611 0
DWIDTH 7 0
BBX 7 9 0 0
BITMAP
38
6C
46
C6
C6
C6
46
6C
38
ENDCHAR
STARTCHAR one
ENCODING 49
SWIDTH 611 0
DWIDTH 7 0
BBX 6 9 1 0
BITMAP
30
F0
30
30
30
30
30
30
FC
ENDCHAR
STARTCHAR two
ENCODING 50
SWIDTH 611 0
DWIDTH 7 0
BBX 7 9 0 0
BITMAP
7C
0C
06
0C
1C
70
60
C0
7E
ENDCHAR
STARTCHAR three
ENCODING 51
SWIDTH 611 0
DWIDTH 7 0
BBX 7 9 0 0
BITMAP
7C
0C
38
7C
0E
06
06
0E
FC
ENDCHAR
STARTCHAR four
ENCODING 52
SWIDTH 611 0
DWIDTH 7 0
BBX 7 9 0 0
BITMAP
1C
3C
6C
4C
CC
CC
FE
0C
0C
ENDCHAR
STARTCHAR five
ENCODING 53
SWIDTH 611 0
DWIDTH 7 0
BBX 7 9 0 0
BITMAP
7C
60
40
7C
06
06
06
0E
FC
ENDCHAR
STARTCHAR six
ENCODING 54
SWIDTH 611 0
DWIDTH 7 0
BBX 7 9 0 0
BITMAP
3E
60
40
FC
E6
C6
46
6E
3C
ENDCHAR
STARTCHAR seven
ENCODING 55
SWIDTH 611 0
DWIDTH 7 0
BBX 6 9 1 0
BITMAP
FC
0C
08
18
30
20
60
60
60
ENDCHAR
STARTCHAR eight
ENCODING 56
SWIDTH 611 0
DWIDTH 7 0
BBX 7 9 0 0
BITMAP
3C
6C
46
6C
7C
C6
C6
6E
3C
ENDCHAR
STARTCHAR nine
ENCODING 57
SWIDTH 611 0
DWIDTH 7 0
BBX 7 9 0 0
BITMAP
38
6C
C6
C6
46
7E
06
0C
78
ENDCHAR
STARTCHAR colon
ENCODING 58
SWIDTH 305 0
DWIDTH 4 0
BBX 2 5 1 0
BITMAP
C0
80
00
80
C0
ENDCHAR
STARTCHAR semicolon
ENCODING 59
SWIDTH 305 0
DWIDTH 4 0
BBX 2 6 1 -1
BITMAP
80
80
00
C0
80
80
ENDCHAR
STARTCHAR less
ENCODING 60
SWIDTH 600 0
DWIDTH 7 0
BBX 6 7 1 0
BITMAP
04
3C
E0
80
E0
3C
04
ENDCHAR
STARTCHAR equal
ENCODING 61
SWIDTH 600 0
DWIDTH 7 0
BBX 6 4 1 1
BITMAP
FC
00
00
FC
ENDCHAR
STARTCHAR greater
ENCODING 62
SWIDTH 600 0
DWIDTH 7 0
BBX 6 7 1 0
BITMAP
80
E0
38
0C
38
E0
80
ENDCHAR
STARTCHAR question
ENCODING 63
SWIDTH 500 0
DWIDTH 6 0
BBX 5 9 0 0
BITMAP
F8
08
08
18
30
20
00
20
20
ENDCHAR
STARTCHAR at
ENCODING 64
SWIDTH 800 0
DWIDTH 10 0
BBX 8 9 1 0
BITMAP
3C
42
BD
A5
E5
ED
BE
42
3C
ENDCHAR
STARTCHAR A
ENCODING 65
SWIDTH 667 0
DWIDTH 8 0
BBX 8 9 0 0
BITMAP
18
38
2C
64
7E
4E
46
C3
C3
ENDCHAR
STARTCHAR B
ENCODING 66
SWIDTH 611 0
DWIDTH 7 0
BBX 6 9 1 0
BITMAP
F8
8C
88
F8
98
8C
8C
8C
F8
ENDCHAR
STARTCHAR C
ENCODING 67
SWIDTH 611 0
DWIDTH 7 0
BBX 6 9 1 0
BITMAP
7C
C0
80
80
80
C0
C0
78
3C
ENDCHAR
STARTCHAR D
ENCODING 68
SWIDTH 667 0
DWIDTH 8 0
BBX 7 9 1 0
BITMAP
F0
B8
8C
8C
86
86
84
9C
F8
ENDCHAR
STARTCHAR E
ENCODING 69
SWIDTH 556 0
DWIDTH 7 0
BBX 5 9 1 0
BITMAP
F8
80
80
F8
80
80
80
80
F8
ENDCHAR
STARTCHAR F
ENCODING 70
SWIDTH 500 0
DWIDTH 6 0
BBX 5 9 1 0
BITMAP
F8
80
80
F8
80
80
80
80
80
ENDCHAR
STARTCHAR G
ENCODING 71
SWIDTH 722 0
DWIDTH 9 0
BBX 8 9 0 0
BITMAP
3F
70
40
CF
C1
61
61
3D
0F
ENDCHAR
STARTCHAR H
ENCODING 72
SWIDTH 611 0
DWIDTH 7 0
BBX 6 9 1 0
BITMAP
88
8C
8C
FC
8C
8C
8C
8C
88
ENDCHAR
STARTCHAR I
ENCODING 73
SWIDTH 278 0
DWIDTH 3 0
BBX 1 9 1 0
BITMAP
80
80
80
80
80
80
80
80
80
ENDCHAR
STARTCHAR J
ENCODING 74
SWIDTH 444 0
DWIDTH 5 0
BBX 5 9 0 0
BITMAP
10
18
18
18
18
18
18
F0
F0
ENDCHAR
STARTCHAR K
ENCODING 75
SWIDTH 611 0
DWIDTH 7 0
BBX 6 9 1 0
BITMAP
8C
88
98
F0
98
8C
8C
84
84
ENDCHAR
STARTCHAR L
ENCODING 76
SWIDTH 444 0
DWIDTH 5 0
BBX 4 9 1 0
BITMAP
80
80
80
80
80
80
80
80
F0
ENDCHAR
STARTCHAR M
ENCODING 77
SWIDTH 722 0
DWIDTH 9 0
BBX 7 9 1 0
BITMAP
C4
CE
EE
BE
B6
82
82
82
82
ENDCHAR
STARTCHAR N
ENCODING 78
SWIDTH 611 0
DWIDTH 7 0
BBX 6 9 1 0
BITMAP
C8
CC
EC
BC
9C
8C
8C
8C
8C
ENDCHAR
STARTCHAR O
ENCODING 79
SWIDTH 722 0
DWIDTH 9 0
BBX 8 9 0 0
BITMAP
3C
76
63
C3
C1
C3
63
76
3C
ENDCHAR
STARTCHAR P
ENCODING 80
SWIDTH 556 0
DWIDTH 7 0
BBX 6 9 1 0
BITMAP
F8
8C
8C
B8
F0
80
80
80
80
ENDCHAR
STARTCHAR Q
ENCODING 81
SWIDTH 722 0
DWIDTH 9 0
BBX 8 11 0 -2
BITMAP
3C
76
63
C3
C1
DB
7F
7E
3C
07
03
ENDCHAR
STARTCHAR R
ENCODING 82
SWIDTH 611 0
DWIDTH 7 0
BBX 6 9 1 0
BITMAP
F8
8C
88
F8
98
8C
8C
84
84
ENDCHAR
STARTCHAR S
ENCODING 83
SWIDTH 611 0
DWIDTH 7 0
BBX 7 9 0 0
BITMAP
7C
40
C0
7C
1E
06
06
0C
FC
ENDCHAR
STARTCHAR T
ENCODING 84
SWIDTH 500 0
DWIDTH 6 0
BBX 6 9 0 0
BITMAP
FC
30
30
30
30
30
30
30
30
ENDCHAR
STARTCHAR U
ENCODING 85
SWIDTH 611 0
DWIDTH 7 0
BBX 6 9 1 0
BITMAP
88
88
88
8C
8C
8C
8C
D8
70
ENDCHAR
STARTCHAR V
ENCODING 86
SWIDTH 611 0
DWIDTH 7 0
BBX 7 9 0 0
BITMAP
C6
C6
46
46
64
6C
2C
38
18
ENDCHAR
STARTCHAR W
ENCODING 87
SWIDTH 833 0
DWIDTH 10 0
BBX 10 9 0 0
BITMAP
CCC0
CCC0
CC80
4C80
4C80
6D80
7F80
3300
3300
ENDCHAR
STARTCHAR X
ENCODING 88
SWIDTH 611 0
DWIDTH 7 0
BBX 7 9 0 0
BITMAP
46
66
7C
38
2C
64
46
C6
C2
ENDCHAR
STARTCHAR Y
ENCODING 89
SWIDTH 556 0
DWIDTH 7 0
BBX 6 9 0 0
BITMAP
C4
C4
4C
78
30
10
10
10
10
ENDCHAR
STARTCHAR Z
ENCODING 90
SWIDTH 500 0
DWIDTH 6 0
BBX 6 9 0 0
BITMAP
7C
0C
08
18
30
60
40
C0
FC
ENDCHAR
STARTCHAR bracketleft
ENCODING 91
SWIDTH 389 0
DWIDTH 5 0
BBX 3 12 1 -3
BITMAP
E0
80
80
80
80
80
80
80
80
80
80
E0
ENDCHAR
STARTCHAR backslash
ENCODING 92
SWIDTH 278 0
DWIDTH 3 0
BBX 4 9 0 0
BITMAP
80
80
C0
40
40
60
20
20
30
ENDCHAR
STARTCHAR bracketright
ENCODING 93
SWIDTH 389 0
DWIDTH 5 0
BBX 4 12 0 -3
BITMAP
F0
30
30
30
30
30
30
30
30
30
30
F0
ENDCHAR
STARTCHAR asciicircum
ENCODING 94
SWIDTH 600 0
DWIDTH 7 0
BBX 5 5 1 4
BITMAP
20
50
50
C8
88
ENDCHAR
STARTCHAR underscore
ENCODING 95
SWIDTH 500 0
DWIDTH 6 0
BBX 6 1 0 -2
BITMAP
FC
ENDCHAR
STARTCHAR grave
ENCODING 96
SWIDTH 278 0
DWIDTH 3 0
BBX 3 2 0 7
BITMAP
80
60
ENDCHAR
STARTCHAR a
ENCODING 97
SWIDTH 556 0
DWIDTH 7 0
BBX 6 7 0 0
BITMAP
78
0C
3C
4C
CC
CC
7C
ENDCHAR
STARTCHAR b
ENCODING 98
SWIDTH 556 0
DWIDTH 7 0
BBX 5 9 1 0
BITMAP
80
80
E0
B8
98
88
88
98
F0
ENDCHAR
STARTCHAR c
ENCODING 99
SWIDTH 500 0
DWIDTH 6 0
BBX 6 7 0 0
BITMAP
7C
60
C0
C0
40
70
3C
ENDCHAR
STARTCHAR d
ENCODING 100
SWIDTH 556 0
DWIDTH 7 0
BBX 6 9 0 0
BITMAP
0C
0C
3C
6C
4C
CC
CC
4C
7C
ENDCHAR
STARTCHAR e
ENCODING 101
SWIDTH 556 0
DWIDTH 7 0
BBX 6 7 0 0
BITMAP
38
6C
44
FC
C0
60
3C
ENDCHAR
STARTCHAR f
ENCODING 102
SWIDTH 333 0
DWIDTH 4 0
BBX 4 9 0 0
BITMAP
70
40
F0
40
40
40
40
40
40
ENDCHAR
STARTCHAR g
ENCODING 103
SWIDTH 556 0
DWIDTH 7 0
BBX 7 10 0 -3
BITMAP
3C
6C
4C
CC
CC
6C
7C
06
CC
78
ENDCHAR
STARTCHAR h
ENCODING 104
SWIDTH 556 0
DWIDTH 7 0
BBX 5 9 1 0
BITMAP
80
80
F0
D8
98
98
98
98
88
ENDCHAR
STARTCHAR i
ENCODING 105
SWIDTH 278 0
DWIDTH 3 0
BBX 1 9 1 0
BITMAP
80
80
80
80
80
80
80
80
80
ENDCHAR
STARTCHAR j
ENCODING 106
SWIDTH 222 0
DWIDTH 3 0
BBX 4 12 -2 -3
BITMAP
10
10
10
10
10
10
10
10
10
10
30
E0
ENDCHAR
STARTCHAR k
ENCODING 107
SWIDTH 500 0
DWIDTH 6 0
BBX 5 9 1 0
BITMAP
80
80
90
90
B0
E0
90
98
98
ENDCHAR
STARTCHAR l
ENCODING 108
SWIDTH 278 0
DWIDTH 3 0
BBX 1 9 1 0
BITMAP
80
80
80
80
80
80
80
80
80
ENDCHAR
STARTCHAR m
ENCODING 109
SWIDTH 833 0
DWIDTH 10 0
BBX 8 7 1 0
BITMAP
F7
DB
99
99
99
99
99
ENDCHAR
STARTCHAR n
ENCODING 110
SWIDTH 556 0
DWIDTH 7 0
BBX 5 7 1 0
BITMAP
F0
D8
98
98
98
98
88
ENDCHAR
STARTCHAR o
ENCODING 111
SWIDTH 556 0
DWIDTH 7 0
BBX 6 7 0 0
BITMAP
38
6C
C4
C4
C4
6C
38
ENDCHAR
STARTCHAR p
ENCODING 112
SWIDTH 556 0
DWIDTH 7 0
BBX 5 10 1 -3
BITMAP
E0
B8
98
88
88
98
F0
80
80
80
ENDCHAR
STARTCHAR q
ENCODING 113
SWIDTH 556 0
DWIDTH 7 0
BBX 6 10 0 -3
BITMAP
3C
6C
4C
CC
CC
6C
7C
0C
0C
04
ENDCHAR
STARTCHAR r
ENCODING 114
SWIDTH 333 0
DWIDTH 4 0
BBX 3 7 1 0
BITMAP
E0
C0
80
80
80
80
80
ENDCHAR
STARTCHAR s
ENCODING 115
SWIDTH 500 0
DWIDTH 6 0
BBX 6 7 0 0
BITMAP
78
C0
60
78
0C
0C
F8
ENDCHAR
STARTCHAR t
ENCODING 116
SWIDTH 389 0
DWIDTH 5 0
BBX 5 9 0 0
BITMAP
40
60
F0
60
60
60
60
60
38
ENDCHAR
STARTCHAR u
ENCODING 117
SWIDTH 556 0
DWIDTH 7 0
BBX 5 7 1 0
BITMAP
88
98
98
98
98
D8
E8
ENDCHAR
STARTCHAR v
ENCODING 118
SWIDTH 500 0
DWIDTH 6 0
BBX 6 7 0 0
BITMAP
CC
CC
48
48
78
30
30
ENDCHAR
STARTCHAR w
ENCODING 119
SWIDTH 722 0
DWIDTH 9 0
BBX 8 7 0 0
BITMAP
C9
C9
59
59
5F
76
26
ENDCHAR
STARTCHAR x
ENCODING 120
SWIDTH 500 0
DWIDTH 6 0
BBX 6 7 0 0
BITMAP
48
48
78
78
48
CC
CC
ENDCHAR
STARTCHAR y
ENCODING 121
SWIDTH 500 0
DWIDTH 6 0
BBX 6 10 0 -3
BITMAP
4C
CC
4C
48
68
38
30
30
60
60
ENDCHAR
STARTCHAR z
ENCODING 122
SWIDTH 444 0
DWIDTH 5 0
BBX 5 7 0 0
BITMAP
F8
18
30
70
60
C0
F8
ENDCHAR
STARTCHAR braceleft
ENCODING 123
SWIDTH 389 0
DWIDTH 5 0
BBX 3 12 1 -3
BITMAP
60
40
40
40
40
80
C0
40
40
40
40
60
ENDCHAR
STARTCHAR bar
ENCODING 124
SWIDTH 222 0
DWIDTH 3 0
BBX 1 12 1 -3
BITMAP
80
80
80
80
80
80
80
80
80
80
80
80
ENDCHAR
STARTCHAR braceright
ENCODING 125
SWIDTH 389 0
DWIDTH 5 0
BBX 4 12 0 -3
BITMAP
E0
20
20
20
20
10
20
20
20
20
20
E0
ENDCHAR
STARTCHAR asciitilde
ENCODING 126
SWIDTH 600 0
DWIDTH 7 0
BBX 5 2 1 2
BITMAP
E8
B8
ENDCHAR
STARTCHAR uni00A0
ENCODING 160
SWIDTH 305 0
DWIDTH 4 0
BBX 1 1 0 0
BITMAP
00
ENDCHAR
STARTCHAR exclamdown
ENCODING 161
SWIDTH 333 0
DWIDTH 4 0
BBX 2 9 1 -3
BITMAP
C0
C0
00
C0
C0
C0
C0
C0
C0
ENDCHAR
STARTCHAR cent
ENCODING 162
SWIDTH 611 0
DWIDTH 7 0
BBX 6 9 0 0
BITMAP
10
10
7C
D0
D0
70
3C
10
10
ENDCHAR
STARTCHAR sterling
ENCODING 163
SWIDTH 611 0
DWIDTH 7 0
BBX 7 9 0 0
BITMAP
1E
3A
30
30
7E
30
30
70
FE
ENDCHAR
STARTCHAR currency
ENCODING 164
SWIDTH 611 0
DWIDTH 7 0
BBX 6 6 1 1
BITMAP
FC
C8
8C
8C
C8
FC
ENDCHAR
STARTCHAR yen
ENCODING 165
SWIDTH 611 0
DWIDTH 7 0
BBX 6 9 1 0
BITMAP
8C
8C
D8
FC
30
F8
20
20
20
ENDCHAR
STARTCHAR brokenbar
ENCODING 166
SWIDTH 222 0
DWIDTH 3 0
BBX 1 10 1 -2
BITMAP
80
80
80
80
00
00
80
80
80
80
ENDCHAR
STARTCHAR section
ENCODING 167
SWIDTH 500 0
DWIDTH 6 0
BBX 6 9 0 0
BITMAP
78
40
70
F8
CC
78
18
08
78
ENDCHAR
STARTCHAR dieresis
ENCODING 168
SWIDTH 278 0
DWIDTH 3 0
BBX 4 1 0 7
BITMAP
B0
ENDCHAR
STARTCHAR copyright
ENCODING 169
SWIDTH 800 0
DWIDTH 10 0
BBX 8 9 1 0
BITMAP
3C
46
BB
A5
A1
A5
BB
42
3C
ENDCHAR
STARTCHAR ordfeminine
ENCODING 170
SWIDTH 334 0
DWIDTH 4 0
BBX 4 5 0 4
BITMAP
60
10
70
90
F0
ENDCHAR
STARTCHAR guillemotleft
ENCODING 171
SWIDTH 500 0
DWIDTH 6 0
BBX 4 5 1 1
BITMAP
50
D0
B0
F0
50
ENDCHAR
STARTCHAR logicalnot
ENCODING 172
SWIDTH 600 0
DWIDTH 7 0
BBX 6 4 1 1
BITMAP
FC
0C
0C
0C
ENDCHAR
STARTCHAR uni00AD
ENCODING 173
SWIDTH 333 0
DWIDTH 4 0
BBX 2 1 1 3
BITMAP
C0
ENDCHAR
STARTCHAR registered
ENCODING 174
SWIDTH 800 0
DWIDTH 10 0
BBX 8 9 1 0
BITMAP
3C
42
BB
A5
B9
A9
AB
42
3C
ENDCHAR
STARTCHAR macron
ENCODING 175
SWIDTH 278 0
DWIDTH 3 0
BBX 3 1 0 7
BITMAP
E0
ENDCHAR
STARTCHAR degree
ENCODING 176
SWIDTH 400 0
DWIDTH 5 0
BBX 3 4 1 5
BITMAP
E0
A0
A0
40
ENDCHAR
STARTCHAR plusminus
ENCODING 177
SWIDTH 600 0
DWIDTH 7 0
BBX 6 7 1 0
BITMAP
20
20
FC
20
20
00
FC
ENDCHAR
STARTCHAR twosuperior
ENCODING 178
SWIDTH 366 0
DWIDTH 4 0
BBX 4 6 0 3
BITMAP
F0
10
30
60
80
F0
ENDCHAR
STARTCHAR threesuperior
ENCODING 179
SWIDTH 366 0
DWIDTH 4 0
BBX 4 6 0 3
BITMAP
F0
60
70
10
10
F0
ENDCHAR
STARTCHAR acute
ENCODING 180
SWIDTH 278 0
DWIDTH 3 0
BBX 3 2 0 7
BITMAP
20
E0
ENDCHAR
STARTCHAR mu
ENCODING 181
SWIDTH 556 0
DWIDTH 7 0
BBX 5 10 1 -3
BITMAP
88
98
98
98
98
D8
E8
80
80
80
ENDCHAR
STARTCHAR paragraph
ENCODING 182
SWIDTH 620 0
DWIDTH 7 0
BBX 7 9 0 0
BITMAP
7E
F2
F2
72
32
12
12
12
12
ENDCHAR
STARTCHAR periodcentered
ENCODING 183
SWIDTH 305 0
DWIDTH 4 0
BBX 2 2 1 2
BITMAP
C0
80
ENDCHAR
STARTCHAR cedilla
ENCODING 184
SWIDTH 278 0
DWIDTH 3 0
BBX 2 3 1 -3
BITMAP
80
40
80
ENDCHAR
STARTCHAR onesuperior
ENCODING 185
SWIDTH 366 0
DWIDTH 4 0
BBX 4 6 0 3
BITMAP
E0
20
20
20
20
F0
ENDCHAR
STARTCHAR ordmasculine
ENCODING 186
SWIDTH 334 0
DWIDTH 4 0
BBX 4 5 0 4
BITMAP
60
90
90
90
60
ENDCHAR
STARTCHAR guillemotright
ENCODING 187
SWIDTH 500 0
DWIDTH 6 0
BBX 4 5 1 1
BITMAP
A0
B0
D0
B0
A0
ENDCHAR
STARTCHAR onequarter
ENCODING 188
SWIDTH 916 0
DWIDTH 11 0
BBX 11 9 0 0
BITMAP
6180
2180
2300
2200
26C0
FD40
0A40
1BE0
1040
ENDCHAR
STARTCHAR onehalf
ENCODING 189
SWIDTH 916 0
DWIDTH 11 0
BBX 11 9 0 0
BITMAP
E100
6100
6300
6600
65C0
FC60
18C0
1100
31E0
ENDCHAR
STARTCHAR threequarters
ENCODING 190
SWIDTH 916 0
DWIDTH 11 0
BBX 11 9 0 0
BITMAP
7080
2180
7300
1A00
1EC0
F5C0
0940
1BE0
1040
ENDCHAR
STARTCHAR questiondown
ENCODING 191
SWIDTH 500 0
DWIDTH 6 0
BBX 6 9 0 -3
BITMAP
10
10
00
10
10
70
40
C0
7C
ENDCHAR
STARTCHAR Agrave
ENCODING 192
SWIDTH 667 0
DWIDTH 8 0
BBX 8 11 0 0
BITMAP
30
0C
18
38
2C
64
7E
4E
46
C3
C3
ENDCHAR
STARTCHAR Aacute
ENCODING 193
SWIDTH 667 0
DWIDTH 8 0
BBX 8 11 0 0
BITMAP
0C
30
18
38
2C
64
7E
4E
46
C3
C3
ENDCHAR
STARTCHAR Acircumflex
ENCODING 194
SWIDTH 667 0
DWIDTH 8 0
BBX 8 12 0 0
BITMAP
18
3C
00
18
38
2C
64
7E
4E
46
C3
C3
ENDCHAR
STARTCHAR Atilde
ENCODING 195
SWIDTH 667 0
DWIDTH 8 0
BBX 8 11 0 0
BITMAP
3C
00
18
38
2C
64
7E
4E
46
C3
C3
ENDCHAR
STARTCHAR Adieresis
ENCODING 196
SWIDTH 667 0
DWIDTH 8 0
BBX 8 11 0 0
BITMAP
24
00
18
38
2C
64
7E
4E
46
C3
C3
ENDCHAR
STARTCHAR Aring
ENCODING 197
SWIDTH 667 0
DWIDTH 8 0
BBX 8 12 0 0
BITMAP
18
28
18
18
38
2C
64
7E
4E
46
C3
C3
ENDCHAR
STARTCHAR AE
ENCODING 198
SWIDTH 889 0
DWIDTH 11 0
BBX 10 9 0 0
BITMAP
0FC0
1E00
3600
2FC0
7E00
6600
C600
C600
87C0
ENDCHAR
STARTCHAR Ccedilla
ENCODING 199
SWIDTH 611 0
DWIDTH 7 0
BBX 6 12 1 -3
BITMAP
7C
C0
80
80
80
C0
C0
78
3C
20
18
30
ENDCHAR
STARTCHAR Egrave
ENCODING 200
SWIDTH 556 0
DWIDTH 7 0
BBX 5 11 1 0
BITMAP
60
30
F8
80
80
F8
80
80
80
80
F8
ENDCHAR
STARTCHAR Eacute
ENCODING 201
SWIDTH 556 0
DWIDTH 7 0
BBX 5 11 1 0
BITMAP
30
40
F8
80
80
F8
80
80
80
80
F8
ENDCHAR
STARTCHAR Ecircumflex
ENCODING 202
SWIDTH 556 0
DWIDTH 7 0
BBX 5 12 1 0
BITMAP
20
50
00
F8
80
80
F8
80
80
80
80
F8
ENDCHAR
STARTCHAR Edieresis
ENCODING 203
SWIDTH 556 0
DWIDTH 7 0
BBX 5 11 1 0
BITMAP
D0
00
F8
80
80
F8
80
80
80
80
F8
ENDCHAR
STARTCHAR Igrave
ENCODING 204
SWIDTH 278 0
DWIDTH 3 0
BBX 3 11 0 0
BITMAP
C0
20
40
40
40
40
40
40
40
40
40
ENDCHAR
STARTCHAR Iacute
ENCODING 205
SWIDTH 278 0
DWIDTH 3 0
BBX 3 11 0 0
BITMAP
60
C0
40
40
40
40
40
40
40
40
40
ENDCHAR
STARTCHAR Icircumflex
ENCODING 206
SWIDTH 278 0
DWIDTH 3 0
BBX 3 12 0 0
BITMAP
40
A0
00
40
40
40
40
40
40
40
40
40
ENDCHAR
STARTCHAR Idieresis
ENCODING 207
SWIDTH 278 0
DWIDTH 3 0
BBX 4 11 0 0
BITMAP
B0
00
40
40
40
40
40
40
40
40
40
ENDCHAR
STARTCHAR Eth
ENCODING 208
SWIDTH 667 0
DWIDTH 8 0
BBX 8 9 0 0
BITMAP
70
5C
46
46
F2
43
42
4E
7C
ENDCHAR
STARTCHAR Ntilde
ENCODING 209
SWIDTH 611 0
DWIDTH 7 0
BBX 6 11 1 0
BITMAP
70
00
C8
CC
EC
BC
9C
8C
8C
8C
8C
ENDCHAR
STARTCHAR Ograve
ENCODING 210
SWIDTH 722 0
DWIDTH 9 0
BBX 8 11 0 0
BITMAP
10
0C
3C
76
63
C3
C1
C3
63
76
3C
ENDCHAR
STARTCHAR Oacute
ENCODING 211
SWIDTH 722 0
DWIDTH 9 0
BBX 8 11 0 0
BITMAP
0C
18
3C
76
63
C3
C1
C3
63
76
3C
ENDCHAR
STARTCHAR Ocircumflex
ENCODING 212
SWIDTH 722 0
DWIDTH 9 0
BBX 8 12 0 0
BITMAP
08
14
00
3C
76
63
C3
C1
C3
63
76
3C
ENDCHAR
STARTCHAR Otilde
ENCODING 213
SWIDTH 722 0
DWIDTH 9 0
BBX 8 11 0 0
BITMAP
1C
20
3C
76
63
C3
C1
C3
63
76
3C
ENDCHAR
STARTCHAR Odieresis
ENCODING 214
SWIDTH 722 0
DWIDTH 9 0
BBX 8 11 0 0
BITMAP
34
00
3C
76
63
C3
C1
C3
63
76
3C
ENDCHAR
STARTCHAR multiply
ENCODING 215
SWIDTH 600 0
DWIDTH 7 0
BBX 5 7 1 0
BITMAP
88
D8
70
20
70
D8
88
ENDCHAR
STARTCHAR Oslash
ENCODING 216
SWIDTH 722 0
DWIDTH 9 0
BBX 8 11 0 -1
BITMAP
02
3E
76
6F
CB
D9
DB
73
76
3C
60
ENDCHAR
STARTCHAR Ugrave
ENCODING 217
SWIDTH 611 0
DWIDTH 7 0
BBX 6 11 1 0
BITMAP
60
10
88
88
88
8C
8C
8C
8C
D8
70
ENDCHAR
STARTCHAR Uacute
ENCODING 218
SWIDTH 611 0
DWIDTH 7 0
BBX 6 11 1 0
BITMAP
30
60
88
88
88
8C
8C
8C
8C
D8
70
ENDCHAR
STARTCHAR Ucircumflex
ENCODING 219
SWIDTH 611 0
DWIDTH 7 0
BBX 6 12 1 0
BITMAP
20
50
00
88
88
88
8C
8C
8C
8C
D8
70
ENDCHAR
STARTCHAR Udieresis
ENCODING 220
SWIDTH 611 0
DWIDTH 7 0
BBX 6 11 1 0
BITMAP
58
00
88
88
88
8C
8C
8C
8C
D8
70
ENDCHAR
STARTCHAR Yacute
ENCODING 221
SWIDTH 556 0
DWIDTH 7 0
BBX 6 11 0 0
BITMAP
18
30
C4
C4
4C
78
30
10
10
10
10
ENDCHAR
STARTCHAR Thorn
ENCODING 222
SWIDTH 556 0
DWIDTH 7 0
BBX 6 9 1 0
BITMAP
80
80
F8
8C
98
F8
E0
80
80
ENDCHAR
STARTCHAR germandbls
ENCODING 223
SWIDTH 556 0
DWIDTH 7 0
BBX 6 9 0 0
BITMAP
78
48
48
D0
70
5C
44
4C
7C
ENDCHAR
STARTCHAR agrave
ENCODING 224
SWIDTH 556 0
DWIDTH 7 0
BBX 6 9 0 0
BITMAP
38
00
78
0C
3C
4C
CC
CC
7C
ENDCHAR
STARTCHAR aacute
ENCODING 225
SWIDTH 556 0
DWIDTH 7 0
BBX 6 9 0 0
BITMAP
38
00
78
0C
3C
4C
CC
CC
7C
ENDCHAR
STARTCHAR acircumflex
ENCODING 226
SWIDTH 556 0
DWIDTH 7 0
BBX 6 9 0 0
BITMAP
30
28
78
0C
3C
4C
CC
CC
7C
ENDCHAR
STARTCHAR atilde
ENCODING 227
SWIDTH 556 0
DWIDTH 7 0
BBX 6 9 0 0
BITMAP
38
00
78
0C
3C
4C
CC
CC
7C
ENDCHAR
STARTCHAR adieresis
ENCODING 228
SWIDTH 556 0
DWIDTH 7 0
BBX 6 9 0 0
BITMAP
68
00
78
0C
3C
4C
CC
CC
7C
ENDCHAR
STARTCHAR aring
ENCODING 229
SWIDTH 556 0
DWIDTH 7 0
BBX 6 10 0 0
BITMAP
30
30
00
78
0C
3C
4C
CC
CC
7C
ENDCHAR
STARTCHAR ae
ENCODING 230
SWIDTH 778 0
DWIDTH 9 0
BBX 9 7 0 0
BITMAP
7F00
0D80
7F80
C800
C800
CC00
7F80
ENDCHAR
STARTCHAR ccedilla
ENCODING 231
SWIDTH 500 0
DWIDTH 6 0
BBX 6 10 0 -3
BITMAP
7C
60
C0
C0
40
70
3C
10
08
30
ENDCHAR
STARTCHAR egrave
ENCODING 232
SWIDTH 556 0
DWIDTH 7 0
BBX 6 9 0 0
BITMAP
38
00
38
6C
44
FC
C0
60
3C
ENDCHAR
STARTCHAR eacute
ENCODING 233
SWIDTH 556 0
DWIDTH 7 0
BBX 6 9 0 0
BITMAP
38
00
38
6C
44
FC
C0
60
3C
ENDCHAR
STARTCHAR ecircumflex
ENCODING 234
SWIDTH 556 0
DWIDTH 7 0
BBX 6 9 0 0
BITMAP
30
28
38
6C
44
FC
C0
60
3C
ENDCHAR
STARTCHAR edieresis
ENCODING 235
SWIDTH 556 0
DWIDTH 7 0
BBX 6 9 0 0
BITMAP
68
00
38
6C
44
FC
C0
60
3C
ENDCHAR
STARTCHAR igrave
ENCODING 236
SWIDTH 278 0
DWIDTH 3 0
BBX 3 9 0 0
BITMAP
E0
00
40
40
40
40
40
40
40
ENDCHAR
STARTCHAR iacute
ENCODING 237
SWIDTH 278 0
DWIDTH 3 0
BBX 2 9 1 0
BITMAP
C0
00
80
80
80
80
80
80
80
ENDCHAR
STARTCHAR icircumflex
ENCODING 238
SWIDTH 278 0
DWIDTH 3 0
BBX 3 9 0 0
BITMAP
60
A0
40
40
40
40
40
40
40
ENDCHAR
STARTCHAR idieresis
ENCODING 239
SWIDTH 278 0
DWIDTH 3 0
BBX 4 9 0 0
BITMAP
B0
00
40
40
40
40
40
40
40
ENDCHAR
STARTCHAR eth
ENCODING 240
SWIDTH 556 0
DWIDTH 7 0
BBX 5 9 1 0
BITMAP
F0
70
50
78
D8
88
88
D8
70
ENDCHAR
STARTCHAR ntilde
ENCODING 241
SWIDTH 556 0
DWIDTH 7 0
BBX 5 9 1 0
BITMAP
70
00
F0
D8
98
98
98
98
88
ENDCHAR
STARTCHAR ograve
ENCODING 242
SWIDTH 556 0
DWIDTH 7 0
BBX 6 9 0 0
BITMAP
30
00
38
6C
C4
C4
C4
6C
38
ENDCHAR
STARTCHAR oacute
ENCODING 243
SWIDTH 556 0
DWIDTH 7 0
BBX 6 9 0 0
BITMAP
38
00
38
6C
C4
C4
C4
6C
38
ENDCHAR
STARTCHAR ocircumflex
ENCODING 244
SWIDTH 556 0
DWIDTH 7 0
BBX 6 9 0 0
BITMAP
30
28
38
6C
C4
C4
C4
6C
38
ENDCHAR
STARTCHAR otilde
ENCODING 245
SWIDTH 556 0
DWIDTH 7 0
BBX 6 9 0 0
BITMAP
38
00
38
6C
C4
C4
C4
6C
38
ENDCHAR
STARTCHAR odieresis
ENCODING 246
SWIDTH 556 0
DWIDTH 7 0
BBX 6 9 0 0
BITMAP
68
00
38
6C
C4
C4
C4
6C
38
ENDCHAR
STARTCHAR divide
ENCODING 247
SWIDTH 600 0
DWIDTH 7 0
BBX 6 7 1 0
BITMAP
20
20
00
FC
00
20
20
ENDCHAR
STARTCHAR oslash
ENCODING 248
SWIDTH 556 0
DWIDTH 7 0
BBX 6 9 0 -1
BITMAP
04
38
6C
D4
D4
E4
6C
78
40
ENDCHAR
STARTCHAR ugrave
ENCODING 249
SWIDTH 556 0
DWIDTH 7 0
BBX 5 9 1 0
BITMAP
60
00
88
98
98
98
98
D8
E8
ENDCHAR
STARTCHAR uacute
ENCODING 250
SWIDTH 556 0
DWIDTH 7 0
BBX 5 9 1 0
BITMAP
70
00
88
98
98
98
98
D8
E8
ENDCHAR
STARTCHAR ucircumflex
ENCODING 251
SWIDTH 556 0
DWIDTH 7 0
BBX 5 9 1 0
BITMAP
60
50
88
98
98
98
98
D8
E8
ENDCHAR
STARTCHAR udieresis
ENCODING 252
SWIDTH 556 0
DWIDTH 7 0
BBX 5 9 1 0
BITMAP
D0
00
88
98
98
98
98
D8
E8
ENDCHAR
STARTCHAR yacute
ENCODING 253
SWIDTH 500 0
DWIDTH 6 0
BBX 6 12 0 -3
BITMAP
38
00
4C
CC
4C
48
68
38
30
30
60
60
ENDCHAR
STARTCHAR thorn
ENCODING 254
SWIDTH 556 0
DWIDTH 7 0
BBX 5 12 1 -3
BITMAP
80
80
E0
B8
98
88
88
98
F0
80
80
80
ENDCHAR
STARTCHAR ydieresis
ENCODING 255
SWIDTH 500 0
DWIDTH 6 0
BBX 6 12 0 -3
BITMAP
48
00
4C
CC
4C
48
68
38
30
30
60
60
ENDCHAR
STARTCHAR .notdef
ENCODING -1
SWIDTH 500 0
DWIDTH 6 0
BBX 6 9 0 0
BITMAP
FC
84
CC
B4
A4
B4
CC
CC
FC
ENDCHAR
STARTCHAR quoteright
ENCODING -1
SWIDTH 222 0
DWIDTH 3 0
BBX 2 3 0 6
BITMAP
40
40
C0
ENDCHAR
STARTCHAR quoteleft
ENCODING -1
SWIDTH 222 0
DWIDTH 3 0
BBX 2 3 0 6
BITMAP
C0
C0
40
ENDCHAR
STARTCHAR fraction
ENCODING -1
SWIDTH 167 0
DWIDTH 2 0
BBX 6 9 -2 0
BITMAP
04
0C
18
10
30
20
60
C0
80
ENDCHAR
STARTCHAR florin
ENCODING -1
SWIDTH 611 0
DWIDTH 7 0
BBX 7 12 0 -3
BITMAP
0E
0C
18
3C
3C
10
10
10
30
30
70
E0
ENDCHAR
STARTCHAR quotedblleft
ENCODING -1
SWIDTH 389 0
DWIDTH 5 0
BBX 4 3 0 6
BITMAP
F0
D0
50
ENDCHAR
STARTCHAR guilsinglleft
ENCODING -1
SWIDTH 333 0
DWIDTH 4 0
BBX 2 5 1 1
BITMAP
40
C0
C0
C0
40
ENDCHAR
STARTCHAR guilsinglright
ENCODING -1
SWIDTH 333 0
DWIDTH 4 0
BBX 2 5 1 1
BITMAP
80
80
C0
C0
80
ENDCHAR
STARTCHAR fi
ENCODING -1
SWIDTH 611 0
DWIDTH 7 0
BBX 6 9 0 0
BITMAP
7C
64
FC
44
44
44
44
44
44
ENDCHAR
STARTCHAR fl
ENCODING -1
SWIDTH 611 0
DWIDTH 7 0
BBX 6 9 0 0
BITMAP
7C
64
F4
64
64
64
64
64
44
ENDCHAR
STARTCHAR endash
ENCODING -1
SWIDTH 500 0
DWIDTH 6 0
BBX 6 1 0 3
BITMAP
FC
ENDCHAR
STARTCHAR dagger
ENCODING -1
SWIDTH 444 0
DWIDTH 5 0
BBX 4 9 1 0
BITMAP
40
40
F0
40
40
40
40
40
40
ENDCHAR
STARTCHAR daggerdbl
ENCODING -1
SWIDTH 444 0
DWIDTH 5 0
BBX 4 9 1 0
BITMAP
40
40
F0
40
40
40
F0
40
40
ENDCHAR
STARTCHAR bullet
ENCODING -1
SWIDTH 500 0
DWIDTH 6 0
BBX 4 4 1 2
BITMAP
60
F0
F0
60
ENDCHAR
STARTCHAR quotesinglbase
ENCODING -1
SWIDTH 222 0
DWIDTH 3 0
BBX 2 3 0 -1
BITMAP
40
40
C0
ENDCHAR
STARTCHAR quotedblbase
ENCODING -1
SWIDTH 389 0
DWIDTH 5 0
BBX 5 3 0 -1
BITMAP
58
50
F0
ENDCHAR
STARTCHAR quotedblright
ENCODING -1
SWIDTH 389 0
DWIDTH 5 0
BBX 5 3 0 6
BITMAP
58
50
F0
ENDCHAR
STARTCHAR ellipsis
ENCODING -1
SWIDTH 1000 0
DWIDTH 12 0
BBX 10 2 1 0
BITMAP
CCC0
CCC0
ENDCHAR
STARTCHAR perthousand
ENCODING -1
SWIDTH 1000 0
DWIDTH 12 0
BBX 12 9 0 0
BITMAP
6600
B400
BC00
E800
1800
1770
39D0
2DD0
6660
ENDCHAR
STARTCHAR circumflex
ENCODING -1
SWIDTH 278 0
DWIDTH 3 0
BBX 3 2 0 7
BITMAP
60
A0
ENDCHAR
STARTCHAR tilde
ENCODING -1
SWIDTH 278 0
DWIDTH 3 0
BBX 4 2 0 7
BITMAP
D0
60
ENDCHAR
STARTCHAR breve
ENCODING -1
SWIDTH 278 0
DWIDTH 3 0
BBX 4 2 0 7
BITMAP
90
E0
ENDCHAR
STARTCHAR dotaccent
ENCODING -1
SWIDTH 278 0
DWIDTH 3 0
BBX 1 1 1 7
BITMAP
80
ENDCHAR
STARTCHAR ring
ENCODING -1
SWIDTH 278 0
DWIDTH 3 0
BBX 2 2 1 7
BITMAP
C0
C0
ENDCHAR
STARTCHAR hungarumlaut
ENCODING -1
SWIDTH 278 0
DWIDTH 3 0
BBX 5 3 -1 6
BITMAP
68
50
80
ENDCHAR
STARTCHAR ogonek
ENCODING -1
SWIDTH 278 0
DWIDTH 3 0
BBX 3 3 0 -3
BITMAP
20
C0
E0
ENDCHAR
STARTCHAR caron
ENCODING -1
SWIDTH 278 0
DWIDTH 3 0
BBX 3 2 0 7
BITMAP
A0
40
ENDCHAR
STARTCHAR emdash
ENCODING -1
SWIDTH 1000 0
DWIDTH 12 0
BBX 12 1 0 3
BITMAP
FFF0
ENDCHAR
STARTCHAR Lslash
ENCODING -1
SWIDTH 444 0
DWIDTH 5 0
BBX 5 9 0 0
BITMAP
40
40
40
70
F0
C0
40
40
78
ENDCHAR
STARTCHAR OE
ENCODING -1
SWIDTH 1000 0
DWIDTH 12 0
BBX 12 9 0 0
BITMAP
3FF0
7700
4300
43E0
C300
C300
4300
6700
3FF0
ENDCHAR
STARTCHAR dotlessi
ENCODING -1
SWIDTH 278 0
DWIDTH 3 0
BBX 1 7 1 0
BITMAP
80
80
80
80
80
80
80
ENDCHAR
STARTCHAR lslash
ENCODING -1
SWIDTH 278 0
DWIDTH 3 0
BBX 4 9 0 0
BITMAP
40
40
40
70
C0
40
40
40
40
ENDCHAR
STARTCHAR oe
ENCODING -1
SWIDTH 833 0
DWIDTH 10 0
BBX 10 7 0 0
BITMAP
7B80
6E80
CCC0
CFC0
CC00
4E00
7BC0
ENDCHAR
STARTCHAR trademark
ENCODING -1
SWIDTH 1000 0
DWIDTH 12 0
BBX 10 6 1 3
BITMAP
F440
46C0
46C0
46C0
4540
4540
ENDCHAR
STARTCHAR minus
ENCODING -1
SWIDTH 600 0
DWIDTH 7 0
BBX 6 1 1 3
BITMAP
FC
ENDCHAR
STARTCHAR Scaron
ENCODING -1
SWIDTH 611 0
DWIDTH 7 0
BBX 7 12 0 0
BITMAP
2C
18
00
7C
40
C0
7C
1E
06
06
0C
FC
ENDCHAR
STARTCHAR Ydieresis
ENCODING -1
SWIDTH 556 0
DWIDTH 7 0
BBX 6 11 0 0
BITMAP
6C
00
C4
C4
4C
78
30
10
10
10
10
ENDCHAR
STARTCHAR Zcaron
ENCODING -1
SWIDTH 500 0
DWIDTH 6 0
BBX 6 12 0 0
BITMAP
68
30
00
7C
0C
08
18
30
60
40
C0
FC
ENDCHAR
STARTCHAR scaron
ENCODING -1
SWIDTH 500 0
DWIDTH 6 0
BBX 6 9 0 0
BITMAP
78
30
78
C0
60
78
0C
0C
F8
ENDCHAR
STARTCHAR zcaron
ENCODING -1
SWIDTH 444 0
DWIDTH 5 0
BBX 5 9 0 0
BITMAP
50
20
F8
18
30
70
60
C0
F8
ENDCHAR
STARTCHAR Delta
ENCODING -1
SWIDTH 709 0
DWIDTH 9 0
BBX 8 9 0 0
BITMAP
18
1C
34
24
26
62
43
43
FF
ENDCHAR
STARTCHAR Omega
ENCODING -1
SWIDTH 786 0
DWIDTH 9 0
BBX 8 8 1 0
BITMAP
7C
C6
83
83
83
82
44
EF
ENDCHAR
STARTCHAR pi
ENCODING -1
SWIDTH 641 0
DWIDTH 8 0
BBX 7 6 0 0
BITMAP
FE
24
64
64
64
44
ENDCHAR
STARTCHAR Euro
ENCODING -1
SWIDTH 611 0
DWIDTH 7 0
BBX 7 9 0 0
BITMAP
3E
30
60
F8
60
F8
30
3C
0E
ENDCHAR
STARTCHAR estimated
ENCODING -1
SWIDTH 844 0
DWIDTH 10 0
BBX 10 9 0 0
BITMAP
1E00
6100
4080
40C0
C0C0
FF00
4000
4080
3F00
ENDCHAR
STARTCHAR partialdiff
ENCODING -1
SWIDTH 610 0
DWIDTH 7 0
BBX 7 9 0 0
BITMAP
78
0C
04
3E
66
C6
C4
4C
38
ENDCHAR
STARTCHAR product
ENCODING -1
SWIDTH 767 0
DWIDTH 9 0
BBX 9 9 0 -1
BITMAP
FF80
2300
2300
2300
2300
2300
2300
2300
2300
ENDCHAR
STARTCHAR summation
ENCODING -1
SWIDTH 602 0
DWIDTH 7 0
BBX 7 9 0 -1
BITMAP
FE
60
20
10
18
10
20
40
FE
ENDCHAR
STARTCHAR uni2219
ENCODING -1
SWIDTH 305 0
DWIDTH 4 0
BBX 2 2 1 2
BITMAP
C0
80
ENDCHAR
STARTCHAR radical
ENCODING -1
SWIDTH 626 0
DWIDTH 8 0
BBX 7 11 0 -2
BITMAP
02
02
02
02
04
E4
24
24
18
18
18
ENDCHAR
STARTCHAR infinity
ENCODING -1
SWIDTH 799 0
DWIDTH 10 0
BBX 8 4 1 1
BITMAP
66
99
99
E6
ENDCHAR
STARTCHAR integral
ENCODING -1
SWIDTH 395 0
DWIDTH 5 0
BBX 4 12 0 -2
BITMAP
30
20
20
20
20
20
20
20
20
20
20
C0
ENDCHAR
STARTCHAR approxequal
ENCODING -1
SWIDTH 590 0
DWIDTH 7 0
BBX 6 5 1 1
BITMAP
C0
B8
00
E4
18
ENDCHAR
STARTCHAR notequal
ENCODING -1
SWIDTH 590 0
DWIDTH 7 0
BBX 5 5 1 1
BITMAP
10
F8
20
F8
40
ENDCHAR
STARTCHAR lessequal
ENCODING -1
SWIDTH 590 0
DWIDTH 7 0
BBX 5 7 1 0
BITMAP
18
60
80
60
18
00
F8
ENDCHAR
STARTCHAR greaterequal
ENCODING -1
SWIDTH 590 0
DWIDTH 7 0
BBX 5 7 1 0
BITMAP
C0
30
08
10
E0
00
F8
ENDCHAR
STARTCHAR lozenge
ENCODING -1
SWIDTH 626 0
DWIDTH 8 0
BBX 6 10 1 -1
BITMAP
30
70
58
C8
8C
8C
C8
58
70
30
ENDCHAR
STARTCHAR uni02C9
ENCODING -1
SWIDTH 278 0
DWIDTH 3 0
BBX 3 1 0 7
BITMAP
E0
ENDCHAR
STARTCHAR uni03A9
ENCODING -1
SWIDTH 786 0
DWIDTH 9 0
BBX 8 8 1 0
BITMAP
7C
C6
83
83
83
82
44
EF
ENDCHAR
STARTCHAR afii61289
ENCODING -1
SWIDTH 552 0
DWIDTH 7 0
BBX 5 9 1 0
BITMAP
70
50
D0
D0
E0
E0
C0
C8
70
ENDCHAR
STARTCHAR uni03BC
ENCODING -1
SWIDTH 556 0
DWIDTH 7 0
BBX 5 10 1 -3
BITMAP
88
98
98
98
98
D8
E8
80
80
80
ENDCHAR
STARTCHAR uni2215
ENCODING -1
SWIDTH 167 0
DWIDTH 2 0
BBX 6 9 -2 0
BITMAP
04
0C
18
10
30
20
60
C0
80
ENDCHAR
ENDFONT
